<?xml version="1.0" encoding="UTF-8"?>
<svg version="1.1" viewBox="0 0 275 225" xmlns="http://www.w3.org/2000/svg">
<title>Graphic Designer</title>
<desc>Created with Sketch.</desc>
<defs>
<linearGradient id="ba" x1="87.595%" x2="-14.855%" y1="10.016%" y2="65.736%">
<stop stop-color="#86E0FA" offset="0"/>
<stop stop-color="#7AB9E7" offset="1"/>
</linearGradient>
<linearGradient id="ap" x1="-2.4975e-14%" y1="49.983%" y2="49.983%">
<stop stop-color="#86E0FA" offset="0"/>
<stop stop-color="#7AB9E7" offset="1"/>
</linearGradient>
<linearGradient id="ae" x1=".0137%" y1="49.999%" y2="49.999%">
<stop stop-color="#86E0FA" offset="0"/>
<stop stop-color="#7AB9E7" offset="1"/>
</linearGradient>
<linearGradient id="t" x1="90.496%" x2="9.5035%" y1="60.682%" y2="37.205%">
<stop stop-color="#86E0FA" offset="0"/>
<stop stop-color="#7AB9E7" offset="1"/>
</linearGradient>
<linearGradient id="i" x1="19.511%" x2="57.443%" y1="78.936%" y2="7.3627%">
<stop stop-color="#86E0FA" offset="0"/>
<stop stop-color="#7AB9E7" offset="1"/>
</linearGradient>
<linearGradient id="d" x1="19.506%" x2="57.438%" y1="78.945%" y2="7.4253%">
<stop stop-color="#86E0FA" offset="0"/>
<stop stop-color="#7AB9E7" offset="1"/>
</linearGradient>
<linearGradient id="c" x1="142.6%" x2="45.683%" y1="34.146%" y2="51.231%">
<stop stop-color="#1E3863" offset="0"/>
<stop stop-color="#387FBD" offset="1"/>
</linearGradient>
<linearGradient id="b" x1="71.316%" x2="28.684%" y1="79.38%" y2="20.698%">
<stop stop-color="#1E3863" offset="0"/>
<stop stop-color="#387FBD" offset="1"/>
</linearGradient>
<linearGradient id="a" x1="71.292%" x2="28.708%" y1="79.37%" y2="20.798%">
<stop stop-color="#86E0FA" offset="0"/>
<stop stop-color="#7AB9E7" offset="1"/>
</linearGradient>
<linearGradient id="az" x1="-1.9677e-14%" y1="49.989%" y2="49.989%">
<stop stop-color="#86E0FA" offset="0"/>
<stop stop-color="#7AB9E7" offset="1"/>
</linearGradient>
<linearGradient id="ay" x1="23.53%" x2="24.365%" y1="67.973%" y2="10.897%">
<stop stop-color="#E7C7D7" offset="0"/>
<stop stop-color="#ECD6D3" offset=".42"/>
<stop stop-color="#F2EBCD" offset="1"/>
</linearGradient>
<linearGradient id="ax" x1="81.193%" x2="23.178%" y1="72.799%" y2="28.855%">
<stop stop-color="#1E3863" offset="0"/>
<stop stop-color="#387FBD" offset="1"/>
</linearGradient>
<linearGradient id="aw" x1="64.492%" x2="31.805%" y1="70.861%" y2="12.93%">
<stop stop-color="#1E3863" offset="0"/>
<stop stop-color="#387FBD" offset="1"/>
</linearGradient>
<linearGradient id="av" x1="43.923%" x2="54.555%" y1="56.436%" y2="67.092%">
<stop stop-color="#E7C7D7" offset="0"/>
<stop stop-color="#ECD6D3" offset=".42"/>
<stop stop-color="#F2EBCD" offset="1"/>
</linearGradient>
<linearGradient id="au" x1="99.449%" x2="-31.395%" y1="-15.463%" y2="54.307%">
<stop stop-color="#E7C7D7" offset="0"/>
<stop stop-color="#ECD6D3" offset=".42"/>
<stop stop-color="#F2EBCD" offset="1"/>
</linearGradient>
<linearGradient id="at" x1="41.214%" x2="361.53%" y1="36.403%" y2="377.6%">
<stop stop-color="#E7C7D7" offset="0"/>
<stop stop-color="#ECD6D3" offset=".42"/>
<stop stop-color="#F2EBCD" offset="1"/>
</linearGradient>
<linearGradient id="as" x1="-5.4154%" x2="62.226%" y1="37.112%" y2="53.365%">
<stop stop-color="#E7C7D7" offset="0"/>
<stop stop-color="#ECD6D3" offset=".42"/>
<stop stop-color="#F2EBCD" offset="1"/>
</linearGradient>
<linearGradient id="ar" x1="2167%" x2="2280.3%" y1="74309%" y2="74045%">
<stop stop-color="#E7C7D7" offset="0"/>
<stop stop-color="#ECD6D3" offset=".42"/>
<stop stop-color="#F2EBCD" offset="1"/>
</linearGradient>
<linearGradient id="aq" x1="61.32%" x2="21.351%" y1="30.943%" y2="67.424%">
<stop stop-color="#86E0FA" offset="0"/>
<stop stop-color="#7AB9E7" offset="1"/>
</linearGradient>
<linearGradient id="ao" x1="55.573%" x2="-46.294%" y1="32.477%" y2="71.105%">
<stop stop-color="#1E3863" offset="0"/>
<stop stop-color="#387FBD" offset="1"/>
</linearGradient>
<linearGradient id="an" x1="43.489%" x2="-45.087%" y1="28.253%" y2="82.547%">
<stop stop-color="#1E3863" offset="0"/>
<stop stop-color="#387FBD" offset="1"/>
</linearGradient>
<linearGradient id="am" x1="60.841%" x2="27.883%" y1="34.535%" y2="68.137%">
<stop stop-color="#1E3863" offset="0"/>
<stop stop-color="#387FBD" offset="1"/>
</linearGradient>
<linearGradient id="al" x1="36.556%" x2="2.7839%" y1="40.205%" y2="73.702%">
<stop stop-color="#1E3863" offset="0"/>
<stop stop-color="#387FBD" offset="1"/>
</linearGradient>
<linearGradient id="ak" x1="92.574%" x2="-9.8991%" y1="34.985%" y2="64.54%">
<stop stop-color="#1E3863" offset="0"/>
<stop stop-color="#387FBD" offset="1"/>
</linearGradient>
<linearGradient id="aj" x1="19.093%" x2="-11.244%" y1="45.465%" y2="77.326%">
<stop stop-color="#1E3863" offset="0"/>
<stop stop-color="#387FBD" offset="1"/>
</linearGradient>
<linearGradient id="ai" x1="16.342%" x2="-14.013%" y1="46.616%" y2="78.36%">
<stop stop-color="#1E3863" offset="0"/>
<stop stop-color="#387FBD" offset="1"/>
</linearGradient>
<linearGradient id="ah" x1="191.5%" x2="-30.902%" y1="101.33%" y2="16.898%">
<stop stop-color="#1E3863" offset="0"/>
<stop stop-color="#387FBD" offset="1"/>
</linearGradient>
<linearGradient id="ag" x1="65.392%" x2="41.056%" y1="58.141%" y2="37.196%">
<stop stop-color="#1E3863" offset="0"/>
<stop stop-color="#387FBD" offset="1"/>
</linearGradient>
<linearGradient id="af" x1="35.632%" x2="65.418%" y1="32.437%" y2="63.922%">
<stop stop-color="#86E0FA" offset="0"/>
<stop stop-color="#7AB9E7" offset="1"/>
</linearGradient>
<linearGradient id="ad" x1="37.176%" x2="54.405%" y1="12.652%" y2="39.856%">
<stop stop-color="#86E0FA" offset="0"/>
<stop stop-color="#7AB9E7" offset="1"/>
</linearGradient>
<linearGradient id="ac" x1="44.028%" x2="67.625%" y1="21.523%" y2="92.735%">
<stop stop-color="#86E0FA" offset="0"/>
<stop stop-color="#7AB9E7" offset="1"/>
</linearGradient>
<linearGradient id="ab" x1="31.089%" x2="134.94%" y1="6.9133%" y2="170.12%">
<stop stop-color="#86E0FA" offset="0"/>
<stop stop-color="#7AB9E7" offset="1"/>
</linearGradient>
<linearGradient id="aa" x1="39.398%" x2="64.846%" y1="12.179%" y2="41.281%">
<stop stop-color="#86E0FA" offset="0"/>
<stop stop-color="#7AB9E7" offset="1"/>
</linearGradient>
<linearGradient id="z" x1="92.612%" x2="5.8346%" y1="30.54%" y2="64.646%">
<stop stop-color="#86E0FA" offset="0"/>
<stop stop-color="#7AB9E7" offset="1"/>
</linearGradient>
<linearGradient id="y" x1="71.292%" x2="28.708%" y1="79.286%" y2="20.714%">
<stop stop-color="#1E3863" offset="0"/>
<stop stop-color="#387FBD" offset="1"/>
</linearGradient>
<linearGradient id="x" x1="59.672%" x2="-31.97%" y1="47.955%" y2="72.413%">
<stop stop-color="#1E3863" offset="0"/>
<stop stop-color="#387FBD" offset="1"/>
</linearGradient>
<linearGradient id="w" x1="66.58%" x2="43.327%" y1="33.581%" y2="56.764%">
<stop stop-color="#1E3863" offset="0"/>
<stop stop-color="#387FBD" offset="1"/>
</linearGradient>
<linearGradient id="v" x1="27.943%" x2="74.486%" y1="70.395%" y2="30.451%">
<stop stop-color="#86E0FA" offset="0"/>
<stop stop-color="#7AB9E7" offset="1"/>
</linearGradient>
<linearGradient id="u" x1="30.547%" x2="71.37%" y1="73.166%" y2="35.56%">
<stop stop-color="#86E0FA" offset="0"/>
<stop stop-color="#7AB9E7" offset="1"/>
</linearGradient>
<linearGradient id="s" x1="40.957%" x2="60.623%" y1="63.425%" y2="37.088%">
<stop stop-color="#86E0FA" offset="0"/>
<stop stop-color="#7AB9E7" offset="1"/>
</linearGradient>
<linearGradient id="r" x1="30.286%" x2="71.069%" y1="64.798%" y2="27.219%">
<stop stop-color="#86E0FA" offset="0"/>
<stop stop-color="#7AB9E7" offset="1"/>
</linearGradient>
<linearGradient id="q" x1="9.691%" x2="114.53%" y1="79.902%" y2="25.245%">
<stop stop-color="#86E0FA" offset="0"/>
<stop stop-color="#7AB9E7" offset="1"/>
</linearGradient>
<linearGradient id="p" x1="5.9725%" x2="108.99%" y1="78.084%" y2="24.427%">
<stop stop-color="#86E0FA" offset="0"/>
<stop stop-color="#7AB9E7" offset="1"/>
</linearGradient>
<linearGradient id="o" x1="4.6402%" x2="107.11%" y1="77.716%" y2="24.39%">
<stop stop-color="#86E0FA" offset="0"/>
<stop stop-color="#7AB9E7" offset="1"/>
</linearGradient>
<linearGradient id="n" x1="3.9191%" x2="106.08%" y1="77.36%" y2="24.177%">
<stop stop-color="#86E0FA" offset="0"/>
<stop stop-color="#7AB9E7" offset="1"/>
</linearGradient>
<linearGradient id="m" x1="3.6645%" x2="105.67%" y1="77.144%" y2="24.108%">
<stop stop-color="#86E0FA" offset="0"/>
<stop stop-color="#7AB9E7" offset="1"/>
</linearGradient>
<linearGradient id="l" x1="3.5134%" x2="105.52%" y1="76.837%" y2="24.175%">
<stop stop-color="#86E0FA" offset="0"/>
<stop stop-color="#7AB9E7" offset="1"/>
</linearGradient>
<linearGradient id="k" x1="3.4514%" x2="105.29%" y1="76.942%" y2="23.957%">
<stop stop-color="#86E0FA" offset="0"/>
<stop stop-color="#7AB9E7" offset="1"/>
</linearGradient>
<linearGradient id="j" x1="3.4546%" x2="105.43%" y1="77.592%" y2="23.418%">
<stop stop-color="#86E0FA" offset="0"/>
<stop stop-color="#7AB9E7" offset="1"/>
</linearGradient>
<linearGradient id="h" x1="3.675%" x2="105.66%" y1="77.011%" y2="23.959%">
<stop stop-color="#86E0FA" offset="0"/>
<stop stop-color="#7AB9E7" offset="1"/>
</linearGradient>
<linearGradient id="g" x1="4.057%" x2="106.35%" y1="76.756%" y2="23.958%">
<stop stop-color="#86E0FA" offset="0"/>
<stop stop-color="#7AB9E7" offset="1"/>
</linearGradient>
<linearGradient id="f" x1="4.77%" x2="107.35%" y1="77.149%" y2="23.725%">
<stop stop-color="#86E0FA" offset="0"/>
<stop stop-color="#7AB9E7" offset="1"/>
</linearGradient>
<linearGradient id="e" x1="6.205%" x2="109.32%" y1="77.32%" y2="23.657%">
<stop stop-color="#86E0FA" offset="0"/>
<stop stop-color="#7AB9E7" offset="1"/>
</linearGradient>
</defs>
<g fill="none" fill-rule="evenodd">
<g transform="translate(-203 -956)">
<g transform="translate(203 956)">
<path d="m127.91 64.431v1.62c0 4.194-2.5523 9.081-5.6977 10.89l-53.526 30.96c-3.1454 1.8-5.6887-0.117-5.6887-4.311v-40.5c0-4.203 2.5433-9.081 5.6887-10.899l8.0882-4.68v38.889c0 4.194 2.5433 6.12 5.6887 4.311l45.447-26.28z" fill="url(#ba)" fill-rule="nonzero" opacity=".22"/>
<path d="m129.51 22.995v38.889l-45.447 26.316c-3.1454 1.8-5.6887-0.117-5.6887-4.32v-38.934l45.438-26.262c3.1454-1.827 5.6977 0.117 5.6977 4.311z" fill="url(#ap)" fill-rule="nonzero" opacity=".22"/>
<path d="m274.57 89.541c0 21.286-11.45 40.921-29.962 51.381l-129.86 73.404-15.826 8.505c-5.5318 3.0021-12.446 0.95469-15.458-4.5773-3.0122-5.532-0.98581-12.462 4.5302-15.493l53.292-29.7c11.962-9.126 0-22.824-12.752-17.334l-53.922 29.79c-5.9947 2.8935-13.203 0.65777-16.515-5.1224s-1.6032-13.141 3.9158-16.865l4.9248-3.78 0.97958-0.756c2.2426-1.3373 3.6167-3.7581 3.6167-6.372s-1.3741-5.0347-3.6167-6.372l-1.7974-1.062c-5.9077-3.5287-13.23-3.6995-19.295-0.45l-33.072 17.64c-3.2011 1.6228-7.0373 1.3315-9.9575-0.756-2.5271-1.8906-3.924-4.9359-3.7097-8.0876 0.21429-3.1517 2.0105-5.9793 4.7702-7.5094l63.556-35.469 13.256-7.371 110.13-62.1c36.999-20.862 82.743 5.922 82.743 48.438l0.035947 0.018z" fill="url(#ae)" fill-rule="nonzero" opacity=".22"/>
<path d="m193.65 107.68c28.65 9.747 47.837 27.567 47.837 47.934 0 30.834-43.973 55.8-98.209 55.8-54.236 0-98.2-25.002-98.2-55.8 0-16.848 13.13-31.95 33.881-42.192" stroke="url(#t)" stroke-linecap="round" stroke-width=".972"/>
<path d="m115.31 120.01l-11.009-14.238c-0.43309-0.56616-0.58354-1.2997-0.40834-1.991 0.1752-0.69128 0.65676-1.2642 1.307-1.555l14.217-6.588c0.86895-0.40576 1.8977-0.23406 2.5882 0.432l10.667 10.287c0.49037 0.47236 0.74981 1.1359 0.71006 1.8162-0.039752 0.68022-0.37472 1.309-0.91676 1.7208l-13.867 10.548c-0.49158 0.3843-1.1166 0.55498-1.7349 0.47377s-1.1783-0.40752-1.5543-0.90577z" fill="url(#i)" fill-rule="nonzero" opacity=".22"/>
<path d="m112.57 119.99l-11.018-14.238c-0.43309-0.56616-0.58354-1.2997-0.40834-1.991 0.1752-0.69128 0.65676-1.2642 1.307-1.555l14.208-6.588c0.87206-0.40465 1.9026-0.23324 2.5972 0.432l10.667 10.287c0.49037 0.47236 0.74981 1.1359 0.71006 1.8162-0.039752 0.68022-0.37472 1.309-0.91676 1.7208l-13.903 10.548c-1.0157 0.77536-2.4662 0.58222-3.2443-0.432z" fill="url(#d)" fill-rule="nonzero" opacity=".22"/>
<path d="m124.27 103.79c0.1924-0.089214 0.36388-0.21801 0.50327-0.378 0.35049-0.45 0.1348-1.107-0.098856-1.629-0.29283-0.74161-0.67297-1.4456-1.1324-2.097-0.47816-0.64827-1.1738-1.102-1.9592-1.278-0.91601-0.068287-1.8304 0.15199-2.6152 0.63-1.1139 0.52493-2.1316 1.2338-3.0106 2.097-1.1683 1.206-3.0196 5.211-0.8268 6.354 1.3211 0.693 3.1544-0.612 4.3047-1.17 1.6356-0.792 3.2533-1.638 4.835-2.529z" fill="#3D4D56" fill-rule="nonzero"/>
<path d="m119.84 103.82c0.7589-0.55363 1.6871-0.82423 2.6242-0.765 0.35049 0.063 0.74592 0.306 0.70098 0.666-0.026566 0.13132-0.088755 0.25276-0.17974 0.351-0.78186 0.9-2.1479 1.026-3.2353 1.548-0.59314 0.279-1.1054 0.693-1.6806 1.008-0.57516 0.315-1.3301 0.423-0.89869-0.378 0.66628-1.0264 1.5856-1.8633 2.6691-2.43z" fill="#418D96" fill-rule="nonzero"/>
<path d="m169.47 44.1c0.93663-0.27074 1.9353-0.23288 2.8489 0.108-1.2849-1.2329-3.0474-1.8355-4.817-1.647-3.3072 0.099 1.9681 1.539 1.9681 1.539z" fill="url(#c)" fill-rule="nonzero"/>
<ellipse transform="translate(154.65 59.064) rotate(-80.26) translate(-154.65 -59.064)" cx="154.65" cy="59.064" rx="4.5808" ry="3.6488" fill="url(#b)" fill-rule="nonzero"/>
<ellipse transform="translate(156.31 59.561) rotate(-80.26) translate(-156.31 -59.561)" cx="156.31" cy="59.561" rx="4.2478" ry="3.3792" fill="url(#a)" fill-rule="nonzero"/>
<path d="m143.28 5.814v40.5c0 4.194-2.5433 9.081-5.6887 10.89l-8.0882 4.671-45.438 26.325c-3.1454 1.8-5.6887-0.117-5.6887-4.32v-40.5c0-4.212 2.5433-9.081 5.6887-10.899l53.526-30.978c3.1454-1.818 5.6887 0.117 5.6887 4.311z" fill="url(#az)" fill-rule="nonzero" opacity=".22"/>
<path d="m107.69 169.76l-2.2827 5.742-2.9118-0.783-0.6201-1.863-4.0531 0.333s-7.1895-2.979-8.6364-5.112c-2.5972-3.96 2.2467-5.652 5.1675-4.815 2.9208 0.837 3.6667 2.367 4.9877 2.421 1.1213-0.030248 2.2348-0.19646 3.3162-0.495l5.0327 4.572z" fill="#161F4E" fill-rule="nonzero"/>
<path d="m162.95 114.4l-2.6152 0.963-5.2574 1.998c-9.3913 3.6-24.921 9.9-33.71 15.156-4.4395 2.646-19.52 29.889-19.52 29.889-0.008994 0.52082 0.024066 1.0415 0.098856 1.557 0.32353 2.259 1.6087 6.147 6.6503 5.958l14.056-20.277c2.1212-3.5405 5.8992-5.7529 10.02-5.868l10.721-2.475 20.67-10.557 5.7157-2.925 2.0041-7.092-8.8342-6.327z" fill="#161F4E" fill-rule="nonzero"/>
<path d="m176.69 118.62l-10.011-0.189c-0.56837 2.7373-2.2924 5.094-4.7271 6.462h-0.071895c-1.5476 0.74702-3.0143 1.6518-4.3766 2.7-2.9028 2.538-4.3856 7.002-5.6708 8.361-1.2851 1.359-19.232 8.676-21.65 13.446-2.2108 4.338-8.4028 33.993-8.4028 33.993s0.45833 1.35 1.1413 3.015c0.42238 1.026 0.89869 2.169 1.4469 3.186 1.366 2.7 6.7761-1.008 6.7761-1.008s6.5335-30.006 9.5261-31.374 10.2-2.763 16.797-5.652 17.408-12.276 17.408-12.276c3.6391-4.3228 5.5589-9.8375 5.3922-15.489-0.080883-2.835-0.17075-5.274-0.22467-5.4-0.11683-0.279-3.3521 0.225-3.3521 0.225z" fill="#212C6E" fill-rule="nonzero"/>
<path d="m128.95 187.44s0.22467 2.637-0.55719 4.041c-0.77105 1.569-1.4551 3.1795-2.049 4.824 0 0-0.53023 0.63-1.7974 0.243l-1.1413-0.495c-0.68974 0.66006-1.5236 1.15-2.4355 1.431-1.402 0.378-12.725 2.88-12.06-3.114 0.66503-5.994 7.576-4.95 9.3105-5.4s5.0956-3.744 5.0956-3.744l5.6348 2.214z" fill="#161F4E" fill-rule="nonzero"/>
<path d="m125.11 101.17c-0.27539 0.9069-0.69409 1.7638-1.2402 2.538-0.89869 1.188-3.5948 3.168-4.4126 2.889-0.81781-0.279 1.5727-2.385 1.1503-2.844-0.42238-0.459-3.7925 0.504-4.4485 0.774s-1.1773 1.881-1.9232 1.737-1.0425-1.242 0.21569-3.744 2.1209-3.717 3.4779-4.581c1.357-0.864 6.4616-1.512 6.4616-1.512s7.4861-4.806 11.683-7.668l11.566-7.758-2.9477 10.8-19.583 9.369z" fill="url(#ay)" fill-rule="nonzero"/>
<path d="m153.85 69.588l-11.297 13.5-5.2214 3.213 4.4935 7.299 10.982-3.69s1.1863 22.23-2.4984 27.144c-3.6846 4.914 1.5188 16.038 13.966 15.039 12.447-0.999 16.042-4.167 16.042-4.167s0.42239-38.601 2.777-46.152c-3.5335-4.2-8.2557-7.2283-13.543-8.685-8.4657-2.151-13.75-5.454-15.7-3.501z" fill="url(#ax)" fill-rule="nonzero"/>
<path d="m159.61 70.344s-3.0016 7.641-4.8709 26.379-5.1315 23.553-5.1315 23.553-1.0964 8.298 7.9804 11.052c0 0 4.3766 1.8 6.6953 0.756 0 0 0.98856-36 1.9951-42.3s1.6356-15.165 1.6356-15.165-9.7958 4.329-8.3039-4.275z" fill="#fff" fill-rule="nonzero"/>
<path d="m152.36 122.4c0.31798 0.25341 0.48163 0.65409 0.43213 1.058s-0.30504 0.75309-0.67477 0.92198l-23.429 10.071-20.283-15.804 25.163-10.8 18.792 14.553z" fill="#418D96" fill-rule="nonzero"/>
<path d="m151.15 121.5c1.1863 0.9 0.23366 1.62-1.1773 2.187l-21.766 8.712-19.214-13.401 25.163-10.8 16.994 13.302z" fill="#5DBACC" fill-rule="nonzero"/>
<polygon points="135.75 113.39 142.08 118.9 136.01 121.82 130.3 116.21" fill="#418D96" fill-rule="nonzero"/>
<polygon points="125.71 113.17 126.51 113.86 139.58 126.22 128.09 130.49 116.79 117" fill="#418D96" fill-rule="nonzero"/>
<path d="m118.63 124.97l-24.66-19.359c-0.37745-0.288-1.4649-0.225-1.6716 0.198-0.18412 0.36867-0.13857 0.81074 0.11683 1.134l14.532 19.296c0.60042 0.79272 1.4281 1.383 2.3725 1.692l19.412 6.525-10.101-9.486z" fill="#418D96" fill-rule="nonzero"/>
<path d="m93.464 105.79c0.08101-0.16709 0.27798-0.24204 0.44935-0.171l20.67 10.305 13.579 16.488-17.704-5.679c-1.0714-0.40687-2.0061-1.1089-2.6961-2.025l-14.235-18.567c-0.08703-0.094949-0.11153-0.23167-0.062908-0.351z" fill="#5DBACC" fill-rule="nonzero"/>
<path d="m95.54 106.85c0.037353-0.039637 0.089368-0.062103 0.14379-0.062103 0.054422 0 0.10644 0.022466 0.14379 0.062103l17.596 8.901 12.51 14.94-15.467-5.319c-0.66201-0.24512-1.2393-0.67638-1.6626-1.242l-13.31-17.028c-0.031037-0.045336-0.042794-0.10117-0.032679-0.1552s0.041272-0.1018 0.0866-0.1328l-0.0089869 0.036z" fill="#83D4DD" fill-rule="nonzero"/>
<path d="m180.32 127.92c-7.1895 4.716-12.42 4.149-12.42 4.149-0.50974-0.2207-0.95731-0.56382-1.3031-0.999-1.9681-2.232 5.4371-9.45 6.2908-10.8 7.7467-12.177-1.4379-13.68 0.60212-23.076 0.6384-2.5926 1.0147-5.2429 1.1234-7.911 0.028827-1.5477-0.13724-3.0929-0.49428-4.599-0.16953-0.71936-0.38874-1.4261-0.65605-2.115-2.75-7.146-10.074-11.088-18.091-12.816-0.36846-0.072-1.5098-0.171-1.5188-0.171-0.14379-0.423 8.1691-2.115 12.582 0.369 1.2222 0.576 2.5613 1.089 3.7835 1.656 0.51226 0.225 0.99755 0.441 1.4649 0.684 3.3254 1.9446 6.5115 4.1189 9.5351 6.507 0.22467 0.234 0.43137 0.477 0.6201 0.702 2.5523 3.204 2.04 6.867 0.44935 13.5-2.049 8.703-1.9681 34.92-1.9681 34.92z" fill="url(#aw)" fill-rule="nonzero"/>
<path d="m128.14 100.08l-2.1029-4.68-1.3031 0.495c0.40441 0.828 2.0221 4.707 2.0221 4.707l1.384-0.522z" fill="#3D4D56" fill-rule="nonzero"/>
<path d="m125.59 98.1c0.55645 0.11323 1.1262-0.12085 1.4428-0.59285 0.31668-0.472 0.3178-1.0887 0.002829-1.5618-0.31497-0.47315-0.88383-0.7093-1.4407-0.59809-0.55686 0.11121-0.99174 0.54782-1.1014 1.1058-0.13189 0.75596 0.36283 1.4791 1.1144 1.629l-0.017974 0.018z" fill="#3D4D56" fill-rule="nonzero"/>
<path d="m125.46 97.542c0.60549 0.10918 1.1848-0.29369 1.2941-0.9 0.082172-0.59045-0.31356-1.1413-0.89869-1.251h-0.14379c-0.56846-0.06656-1.0948 0.30896-1.2178 0.86875-0.12293 0.55979 0.19757 1.1218 0.74147 1.3002 0.068589 0.0092684 0.13811 0.0092684 0.2067 0l0.017974-0.018z" fill="#56666E" fill-rule="nonzero"/>
<path d="m161.38 109.41s-16.302 2.502-17.345 2.763c-1.3391 0.333-2.076 2.142-3.1993 2.862-1.4639 0.89553-3.1562 1.3458-4.8709 1.296-1.7623-0.059887-3.5129-0.31034-5.2214-0.747-0.63807-0.135-1.4199-0.441-1.4469-1.098 0.020853-0.29287 0.1306-0.57236 0.31454-0.801 1.8489-2.6876 4.9103-4.2796 8.1691-4.248l-2.9297-1.44c0.601-0.52472 1.3896-0.78147 2.1838-0.711 0.78453 0.079677 1.5644 0.19984 2.3366 0.36 3.3521 0.504 6.6773-0.9 9.7958-1.926 3.3431-1.122 6.6803-2.268 10.011-3.438 0.7549-0.27 7.1356-2.07 7.8905-2.331l4.9788 7.119-10.667 2.34z" fill="url(#av)" fill-rule="nonzero"/>
<path d="m170.12 72.162c-0.1361 0.33014-0.32759 0.63452-0.56618 0.9-1.3031 1.593-4.4935 3.753-7.3783 2.979l-0.5482-0.198c-3.7026-1.512-1.9142-4.068-1.5547-7.605 0.1348-1.35 0.25163-2.106 2.4355-2.574 2.5727-0.50216 5.1885-0.74936 7.8096-0.738-0.57516 1.386 0.053922 4.806-0.089869 6.552-0.007351 0.23161-0.04358 0.46139-0.10784 0.684z" fill="url(#au)" fill-rule="nonzero"/>
<path d="m169.63 65.772s-4.143 7.443-7.8276 8.1c-3.6846 0.657-2.1928-3.51-2.1928-3.51l10.02-4.59z" fill="url(#at)" fill-rule="nonzero"/>
<path d="m165.66 46.296c1.1878-0.26293 2.4216-0.23204 3.5948 0.09 0.7549 0.324 1.0155 1.125 1.7165 1.431 0.89869 0.432 2.058 0.459 2.8219 1.179 0.53663 0.59712 0.91107 1.3223 1.0874 2.106 0.56462 1.7662 0.65757 3.6497 0.26961 5.463-0.6201 2.43-3.2083 6.543-3.2083 6.543-1.2757 1.5773-2.641 3.0798-4.0891 4.5-1.1863 0.99-4.0351 3.375-8.2141 2.7-4.1789-0.675-5.0596-8.208-4.8799-9.72s0.65605-2.115 0.70997-2.853c-0.053878-1.0313-0.053878-2.0647 0-3.096 0.14684-1.0172 0.51832-1.9888 1.0874-2.844 0.082121-0.10081 0.15435-0.20931 0.21569-0.324 2.1703-2.8257 5.3623-4.6842 8.8881-5.175z" fill="url(#as)" fill-rule="nonzero"/>
<path d="m176.84 54.063c-0.11683 2.619-1.4559 4.392-3.1275 7.056-0.89869 1.395-2.2737 4.5-3.3881 3.888 0 0-0.4134-3.6 1.0425-3.753s2.1748-4.887 0.56618-4.194c-0.27818 0.11743-0.52235 0.30315-0.70997 0.54-0.059918 0.049323-0.10889 0.11063-0.14379 0.18-0.63905 0.93388-1.0655 1.9969-1.2492 3.114-0.044934 0.279-0.32353 0.585-0.55719 0.441-0.17974-1.359 0.089869-2.772-0.22467-4.104-0.074977-0.36423-0.23859-0.70429-0.47631-0.99-0.24728-0.22888-0.53335-0.41175-0.84477-0.54-0.92628-0.46872-1.9266-0.77322-2.9567-0.9-0.87413-0.019373-1.7485 0.02877-2.6152 0.144-0.59653 0.078978-1.2009 0.078978-1.7974 0-1.375-0.234-2.3815-1.368-3.6577-1.647-0.67402-0.144-0.79085 0.333-1.0245 0.999-0.16653 0.50338-0.2633 1.0273-0.28758 1.557-0.001546 0.060259 0.021117 0.11862 0.062908 0.162-1.3216-0.69434-1.9515-2.2411-1.4918-3.663 0.15739-0.31481 0.26646-0.6516 0.32353-0.999-0.012487-0.25455-0.060897-0.50604-0.14379-0.747-0.34948-1.008-0.44819-2.0862-0.28758-3.141 0.17316-0.78425 0.50335-1.5252 0.97059-2.178 1.6102-2.3585 4.1978-3.8628 7.0414-4.0934 2.8436-0.23062 5.6392 0.83705 7.6073 2.9054 0.3509 0.48887 0.72894 0.95761 1.1324 1.404 0.42239 0.333 0.89869 0.252 1.4918 0.396 1.1467 0.28069 2.1602 0.95204 2.8668 1.899 1.0165 1.3687 1.6383 2.9907 1.7974 4.689 0.066135 0.52225 0.093171 1.0487 0.080882 1.575z" fill="#212C6E" fill-rule="nonzero"/>
<path d="m172.29 47.556c0.47038 1.1387 0.67331 2.3703 0.59314 3.6 0.061085 1.0418-0.11085 2.0842-0.50327 3.051-0.068005 0.16751-0.17975 0.31361-0.32353 0.423-0.14525 0.078885-0.30359 0.13072-0.46732 0.153-0.68922 0.17876-1.2763 0.63029-1.6266 1.251-0.34292 0.62538-0.41126 1.3652-0.18872 2.043 0.044934 0.126 0.10784 0.27 0.22467 0.315s0.39542-0.081 0.55719-0.207c1.0065-0.756 2.5433-0.351 3.5948-1.08 0.49318-0.38053 0.83168-0.92739 0.95261-1.539 0.11146-0.59309 0.15369-1.1971 0.12582-1.8l-0.053921-4.761c0.019531-0.32839-0.020042-0.65763-0.11683-0.972-0.13446-0.31894-0.3369-0.60461-0.59314-0.837-0.6573-0.7131-1.5219-1.2011-2.4714-1.395-0.5482-0.09-0.89869-0.063-0.55719 0.477 0.31302 0.40625 0.59826 0.83322 0.85376 1.278z" fill="#152157" fill-rule="nonzero"/>
<path d="m170.87 58.941c-0.11683 0.153-0.35049 0.558 0.071895 0.405 0.068582-0.0093784 0.13812-0.0093784 0.2067 0-0.26684 0.28242-0.44767 0.63523-0.52124 1.017-0.017442 0.10125-0.017442 0.20475 0 0.306 0.0159 0.10649 0.088111 0.19603 0.18872 0.234 0.12426 0.020513 0.25142-0.012138 0.35049-0.09 0.33249-0.13884 0.56084-0.45069 0.59314-0.81l0.28758-1.071c0.036815-0.085176 0.055193-0.1772 0.053921-0.27 2.83e-4 -0.098543-0.018011-0.19625-0.053921-0.288-0.023878-0.070874-0.071507-0.13129-0.1348-0.171-0.1549-0.018314-0.31059 0.02716-0.43137 0.126-0.22627 0.18007-0.4313 0.3854-0.61111 0.612z" fill="url(#ar)" fill-rule="nonzero"/>
<path d="m173.74 61.038c-0.89869 1.404-2.2917 4.5-3.406 3.897 0 0-0.4134-3.6 1.0425-3.753s2.1928-4.878 0.57516-4.194c-0.27706 0.12371-0.52278 0.30827-0.71895 0.54 0.15655-0.193 0.32781-0.37354 0.51226-0.54 0.42447-0.45296 0.97586-0.76671 1.5817-0.9 0.30376-0.027242 0.60451-0.081455 0.89869-0.162 0.48676-0.25296 0.88491-0.64855 1.1413-1.134 0.26253-0.47455 0.72478-0.80521 1.2582-0.9 0.070684-0.018693 0.145-0.018693 0.21569 0-0.11683 2.808-1.4649 4.608-3.1005 7.146z" fill="#152157" fill-rule="nonzero"/>
<path d="m102.35 62.82l4.7721 3.78 5.8685-3.384 4.6822-8.856-6.7132-12.06v12.375c0.76389-0.198 1.3211 0.279 1.3211 1.215-0.070887 1.2603-0.73881 2.4108-1.7974 3.096-0.98856 0.576-1.7974 0.117-1.7974-1.026 0.069745-1.0387 0.54418-2.0083 1.3211-2.7v-12.249l-7.6569 19.809z" fill="url(#aq)" fill-rule="nonzero"/>
<path d="m106.32 68.4l7.3783-4.266c0.24162-0.16787 0.38595-0.4435 0.38644-0.738 0-0.288-0.17075-0.414-0.38644-0.288l-7.3783 4.257c-0.24162 0.16787-0.38595 0.4435-0.38644 0.738 0 0.297 0.17075 0.378 0.38644 0.297z" fill="url(#ao)" fill-rule="nonzero"/>
<polygon points="107.19 68.229 112.99 64.872 112.99 67.707 107.19 71.055" fill="url(#an)" fill-rule="nonzero"/>
<ellipse transform="translate(120.03 22.633) rotate(-59.69) translate(-120.03 -22.633)" cx="120.03" cy="22.633" rx="1.4125" ry="1" stroke="#1C73B3" stroke-width=".972"/>
<ellipse transform="translate(99.844 58.318) rotate(-59.69) translate(-99.844 -58.318)" cx="99.844" cy="58.318" rx="1.4125" ry="1" stroke="#1C73B3" stroke-width=".972"/>
<path d="m100.42 57.33l18.9-33.48" stroke="url(#am)" stroke-width=".972"/>
<polygon points="108.98 42.183 112.68 40.05 112.68 35.802 108.98 37.935" fill="url(#al)" fill-rule="nonzero"/>
<path d="m128.51 29.286c0-0.297-7.1895-5.805-18.36 10.8-3.5229 5.274-16.689 12.114-20.194 2.817" stroke="url(#ak)" stroke-width=".972"/>
<polygon points="127.81 31.356 129.93 30.123 129.93 27.486 127.81 28.719" fill="url(#aj)" fill-rule="nonzero"/>
<polygon points="88.899 44.838 91.029 43.605 91.029 40.968 88.899 42.201" fill="url(#ai)" fill-rule="nonzero"/>
<path d="m162.15 54.954c-0.59653 0.078978-1.2009 0.078978-1.7974 0-1.375-0.234-2.3815-1.368-3.6577-1.647-0.67402-0.144-0.79085 0.333-1.0245 0.999-0.16653 0.50338-0.2633 1.0273-0.28758 1.557v0.099c-0.52817-0.38416-0.86072-0.98166-0.90919-1.6336-0.048477-0.65192 0.19203-1.2922 0.65756-1.7504 0.0701-0.048639 0.12346-0.1178 0.15278-0.198 0.013567-0.065301 0.013567-0.1327 0-0.198-0.17711-0.55813-0.2887-1.135-0.33252-1.719-0.028827-0.59454 0.33714-1.137 0.89869-1.332 0.37204-0.048513 0.7479 0.055322 1.0425 0.288 0.75863 0.65368 1.3711 1.4602 1.7974 2.367 0.42443 0.78525 0.98426 1.4891 1.6536 2.079 0.52124 0.378 1.4199 0.576 1.8064 1.089z" fill="#152157" fill-rule="nonzero"/>
<polygon points="152.81 89.901 152.81 82.332 140.86 92.025 142.36 94.14" fill="url(#ah)" fill-rule="nonzero"/>
<path d="m172.98 84.969l-5.4551 13.923-2.8129 1.683 8.7623 8.469s8.942-10.071 10.398-20.7c0.76389-5.625-0.89869-12.006-6.4257-8.757-2.044 1.2478-3.6154 3.1413-4.4665 5.382z" fill="url(#ag)" fill-rule="nonzero"/>
<path d="m217.32 92.844l-28.39-16.416c-1.3131-0.75921-2.1217-2.1626-2.1209-3.681v-39.924c-0.00167-0.69722 0.36962-1.3419 0.97307-1.6897 0.60345-0.34772 1.3466-0.34518 1.9477 0.006664l28.938 16.731c1.2822 0.74124 2.0655 2.1174 2.0493 3.6v39.429c-0.007392 0.80668-0.44186 1.5488-1.1413 1.9491-0.6994 0.40024-1.5585 0.3983-2.2561-0.0050812z" fill="url(#af)" fill-rule="nonzero" opacity=".22"/>
<polygon points="201.14 44.82 201.14 70.425 191.62 52.119" fill="url(#ad)" fill-rule="nonzero"/>
<ellipse transform="translate(204.57 55.292) rotate(-30.31) translate(-204.57 -55.292)" cx="204.57" cy="55.292" rx="4.0906" ry="7.0894" fill="url(#ac)" fill-rule="nonzero"/>
<polygon points="213.66 72.522 198.94 64.017 198.94 60.876 213.66 69.381" fill="url(#ab)" fill-rule="nonzero"/>
<polygon points="211.14 66.393 211.14 81.036 203.77 76.77" fill="url(#aa)" fill-rule="nonzero"/>
<path d="m177.51 60.03c-0.42239 2.493-3.5948 5.193-5.5989 4.851s-3.2443-2.637-2.8219-5.13c0.42239-2.493 2.3815-4.239 4.3676-3.897s4.4845 1.683 4.0531 4.176z" fill="url(#z)" fill-rule="nonzero"/>
<ellipse transform="translate(174.36 60.882) rotate(-80.26) translate(-174.36 -60.882)" cx="174.36" cy="60.882" rx="4.2478" ry="3.3792" fill="url(#y)" fill-rule="nonzero"/>
<path d="m173.45 56.412s2.067-9.819-1.375-12.411c-1.3816-0.87851-2.9668-1.3839-4.6013-1.467 1.3451-0.33736 2.7589-0.27797 4.0711 0.171 3.3971 1.476 4.7541 4.005 3.7835 13.707h-1.8783z" fill="url(#x)" fill-rule="nonzero"/>
<path d="m173.88 56.412s2.067-9.819-1.375-12.411c-1.3787-0.87778-2.9608-1.3832-4.5923-1.467 1.3423-0.33558 2.7527-0.27621 4.0621 0.171 3.406 1.476 4.7631 4.005 3.7835 13.707h-1.8783z" fill="url(#w)" fill-rule="nonzero"/>
<path d="m197.21 147.99l-0.64706-1.44-2.9747 1.719-0.63807 2.187-1.5817 0.9 3.0106-9.9 1.4289-0.819 3.0196 6.408-1.6176 0.945zm-2.1299-4.779l-0.89869 3.168 1.8693-1.08-0.97059-2.088z" fill="#fff" fill-rule="nonzero"/>
<path d="m199.78 139.63v-1.566l1.6087-0.9v1.557l-1.6087 0.909zm0 6.849v-6.192l1.5278-0.9v6.192l-1.5278 0.9z" fill="#fff" fill-rule="nonzero"/>
<path d="m236.36 102.38l-1.1773 0.675v2.43l-1.5458 0.9v-8.1l2.8668-1.665c1.6806-0.972 2.6961-0.414 2.6961 1.242-0.093884 1.8993-1.1704 3.6119-2.8399 4.518zm1.2761-3.6c0-0.792-0.48529-0.945-1.2582-0.495l-1.1953 0.693v2.466l1.1773-0.639c0.71479-0.39066 1.1796-1.1211 1.2312-1.935l0.044935-0.09z" fill="#fff" fill-rule="nonzero"/>
<path d="m242.04 101.61c-0.68011 0.45115-1.5184 0.59488-2.3096 0.396l0.65605-1.53c0.57593 0.14822 1.1871 0.060788 1.6985-0.243 0.34672-0.14482 0.58996-0.46388 0.63807-0.837 0-0.387-0.52124-0.207-1.1144-0.072-0.7549 0.18-1.6087 0.27-1.6087-0.9 0.08683-1.3026 0.82805-2.472 1.9681-3.105 0.59892-0.37813 1.3112-0.53416 2.0131-0.441l-0.58415 1.548c-0.50048-0.062146-1.008 0.028842-1.4559 0.261-0.3044 0.13971-0.51748 0.42424-0.56618 0.756 0 0.351 0.51226 0.216 1.0964 0.108 0.7549-0.144 1.6266-0.234 1.6266 0.9-0.076719 1.3444-0.8602 2.5471-2.058 3.159z" fill="#fff" fill-rule="nonzero"/>
<polygon points="66.162 103.29 66.162 95.193 67.717 94.293 67.717 102.39" fill="#fff" fill-rule="nonzero"/>
<path d="m73.199 99.225v-0.9c-0.33912 0.815-0.92338 1.5039-1.6716 1.971-1.2582 0.729-2.4534 0.288-2.4534-1.8-0.016806-1.8585 0.90645-3.5993 2.4534-4.626 0.80882-0.468 1.3121-0.333 1.6716-0.045v-3.051l1.5278-0.9v8.442l-1.5278 0.909zm0-3.123c0-1.026-0.60212-1.368-1.3121-0.954-0.81665 0.55503-1.3075 1.4776-1.3121 2.466 0 1.026 0.60212 1.359 1.3121 0.9 0.81643-0.55108 1.3077-1.471 1.3121-2.457v0.045z" fill="#fff" fill-rule="nonzero"/>
<polygon points="252.65 103.39 225.04 119.35 225.04 94.14 252.65 78.183" stroke="url(#v)" stroke-width=".972"/>
<path d="m163.95 179.38c-1.8264 2.7702-4.2377 5.1052-7.0637 6.84-6.4257 3.708-11.62 0.738-11.62-6.633s5.1944-16.362 11.62-20.07c2.6961-1.539 5.1136-1.935 7.0637-1.341-2.768 4.041-4.5564 8.919-4.5564 13.239s1.7884 7.137 4.5564 7.965z" stroke="url(#u)" stroke-width=".63"/>
<path d="m168.5 166.15c0 4.32-1.7974 9.189-4.5564 13.23-2.768-0.828-4.5564-3.645-4.5564-7.965s1.7974-9.198 4.5564-13.239c2.768 0.837 4.5564 3.654 4.5564 7.974z" stroke="url(#s)" stroke-width=".63"/>
<path d="m182.63 157.98c0 7.371-5.2034 16.362-11.62 20.07-2.6511 1.53-5.1046 1.926-7.0637 1.332 2.768-4.041 4.5564-8.91 4.5564-13.23s-1.7974-7.137-4.5564-7.974c1.829-2.7656 4.2399-5.0971 7.0637-6.831 6.4167-3.744 11.62-0.747 11.62 6.633z" stroke="url(#r)" stroke-width=".63"/>
<path d="m161.94 161.6l3.1993-2.898" stroke="url(#q)" stroke-width=".63"/>
<path d="m160.85 164.11l5.2214-4.725" stroke="url(#p)" stroke-width=".63"/>
<path d="m160.12 166.28l6.5694-5.94" stroke="url(#o)" stroke-width=".63"/>
<path d="m159.54 168.31l7.8905-7.137" stroke="url(#n)" stroke-width=".63"/>
<path d="m159.54 169.82l8.4387-7.623" stroke="url(#m)" stroke-width=".63"/>
<path d="m159.39 171.41l8.6993-7.803" stroke="url(#l)" stroke-width=".63"/>
<path d="m159.54 172.85l8.96-8.1" stroke="url(#k)" stroke-width=".63"/>
<path d="m159.79 174.2l8.7173-8.046" stroke="url(#j)" stroke-width=".63"/>
<path d="m160.12 175.36l8.2949-7.497" stroke="url(#h)" stroke-width=".63"/>
<path d="m160.52 176.51l7.567-6.786" stroke="url(#g)" stroke-width=".63"/>
<path d="m161.15 177.46l6.5245-5.904" stroke="url(#f)" stroke-width=".63"/>
<path d="m161.94 178.26l4.9967-4.518" stroke="url(#e)" stroke-width=".63"/>
</g>
</g>
</g>
</svg>
